# xmcd
#
# Track frame offsets: 
#        150
#        14710
#        28309
#        43377
#        60419
#        76118
#        92021
#        105532
#        128016
#        143400
#        161322
#        191085
#
# Disc length: 3361 seconds
#
# Revision: 0
# Processed by: cddbd v1.5.2PL0 Copyright (c) Steve Scherf et al.
# Submitted via: ExactAudioCopy v0.95b3
#
DISCID=960d1f0c
DTITLE=Danielle Peck - Danielle Peck
DYEAR=2006
DGENRE=Country
TTITLE0=Findin' A Good Man
TTITLE1=Isn't That Everything
TTITLE2=Kiss You On The Mouth
TTITLE3=Fallin' Apart
TTITLE4=I Don't
TTITLE5=Sucks To Be You
TTITLE6=Honky-Tonk Time
TTITLE7=Thirsty Again
TTITLE8=Only the Lonely Talkin'
TTITLE9=A Woman Does Too
TTITLE10=Somebody For You
TTITLE11=Data
EXTD=
EXTT0=
EXTT1=
EXTT2=
EXTT3=
EXTT4=
EXTT5=
EXTT6=
EXTT7=
EXTT8=
EXTT9=
EXTT10=
EXTT11=
PLAYORDER=
